<svg xmlns="http://www.w3.org/2000/svg" xmlns:xlink="http://www.w3.org/1999/xlink" width="88.096" height="88.096" viewBox="0 0 88.096 88.096"><defs><style>.a{fill:#fff;}.b{filter:url(#a);}</style><filter id="a" x="0" y="0" width="88.096" height="88.096" filterUnits="userSpaceOnUse"><feOffset dx="2" dy="2" input="SourceAlpha"/><feGaussianBlur stdDeviation="2" result="b"/><feFlood flood-opacity="0.329"/><feComposite operator="in" in2="b"/><feComposite in="SourceGraphic"/></filter></defs><g class="b" transform="matrix(1, 0, 0, 1, 0, 0)"><path class="a" d="M64.949,0h-53.8A11.16,11.16,0,0,0,0,11.147v53.8A11.16,11.16,0,0,0,11.147,76.1h53.8A11.16,11.16,0,0,0,76.1,64.949v-53.8A11.16,11.16,0,0,0,64.949,0ZM26.9,60.342H17.984V29.131H26.9Zm0-35.67H17.984V15.754H26.9Zm31.211,35.67H49.195V42.507a4.459,4.459,0,0,0-8.918,0V60.342H31.36V29.131h8.918v1.681c2.336-.726,3.854-1.681,6.688-1.681,6.048.006,11.147,5.432,11.147,11.844Zm0,0" transform="translate(4 4)"/></g></svg>