<svg xmlns="http://www.w3.org/2000/svg" xmlns:xlink="http://www.w3.org/1999/xlink" width="88.763" height="88.763" viewBox="0 0 88.763 88.763"><defs><style>.a{fill:#fff;}.b{filter:url(#c);}.c{filter:url(#a);}</style><filter id="a" x="0" y="0" width="88.763" height="88.763" filterUnits="userSpaceOnUse"><feOffset dx="2" dy="2" input="SourceAlpha"/><feGaussianBlur stdDeviation="2" result="b"/><feFlood flood-opacity="0.329"/><feComposite operator="in" in2="b"/><feComposite in="SourceGraphic"/></filter><filter id="c" x="23.716" y="23.417" width="41.63" height="41.63" filterUnits="userSpaceOnUse"><feOffset dx="2" dy="2" input="SourceAlpha"/><feGaussianBlur stdDeviation="2" result="d"/><feFlood flood-opacity="0.329"/><feComposite operator="in" in2="d"/><feComposite in="SourceGraphic"/></filter></defs><g transform="translate(4 4)"><g class="c" transform="matrix(1, 0, 0, 1, -4, -4)"><path class="a" d="M65.519,0H11.245A11.258,11.258,0,0,0,0,11.245V65.519A11.258,11.258,0,0,0,11.245,76.763H65.519A11.258,11.258,0,0,0,76.763,65.519V11.245A11.258,11.258,0,0,0,65.519,0ZM38.532,58.472a20.24,20.24,0,1,1,20.24-20.24A20.263,20.263,0,0,1,38.532,58.472ZM61.021,22.489a6.747,6.747,0,1,1,6.747-6.747A6.755,6.755,0,0,1,61.021,22.489Zm0,0" transform="translate(4 4)"/></g><path class="a" d="M394.249,90a2.249,2.249,0,1,0,2.249,2.249A2.25,2.25,0,0,0,394.249,90Zm0,0" transform="translate(-333.228 -76.506)"/><g class="b" transform="matrix(1, 0, 0, 1, -4, -4)"><path class="a" d="M166.815,150a14.815,14.815,0,1,0,14.815,14.815A14.833,14.833,0,0,0,166.815,150Zm0,0" transform="translate(-124.28 -122.58)"/></g></g></svg>